<?xml version="1.0" encoding="UTF-8"?>
<svg xmlns="http://www.w3.org/2000/svg" xmlns:xlink="http://www.w3.org/1999/xlink" width="600pt" height="600pt" viewBox="0 0 600 600" version="1.1">
<g id="surface1">
<rect x="0" y="0" width="600" height="600" style="fill:rgb(100%,100%,100%);fill-opacity:1;stroke:none;"/>
<path style="fill:none;stroke-width:1;stroke-linecap:butt;stroke-linejoin:miter;stroke:rgb(26.666667%,26.666667%,26.666667%);stroke-opacity:1;stroke-miterlimit:10;" d="M 96.789062 492.023438 L 73.636719 464.640625 "/>
<path style="fill:none;stroke-width:1;stroke-linecap:butt;stroke-linejoin:miter;stroke:rgb(26.666667%,26.666667%,26.666667%);stroke-opacity:1;stroke-miterlimit:10;" d="M 197.175781 541.796875 L 161.675781 542.535156 "/>
<path style="fill:none;stroke-width:1;stroke-linecap:butt;stroke-linejoin:miter;stroke:rgb(26.666667%,26.666667%,26.666667%);stroke-opacity:1;stroke-miterlimit:10;" d="M 69.617188 199.3125 L 53.855469 168.300781 "/>
<path style="fill:none;stroke-width:1;stroke-linecap:butt;stroke-linejoin:miter;stroke:rgb(26.666667%,26.666667%,26.666667%);stroke-opacity:1;stroke-miterlimit:10;" d="M 415.75 380.59375 L 384.785156 399.101562 "/>
<path style="fill:none;stroke-width:1;stroke-linecap:butt;stroke-linejoin:miter;stroke:rgb(26.666667%,26.666667%,26.666667%);stroke-opacity:1;stroke-miterlimit:10;" d="M 302.898438 548.90625 L 293.34375 515.09375 "/>
<path style="fill:none;stroke-width:1;stroke-linecap:butt;stroke-linejoin:miter;stroke:rgb(26.666667%,26.666667%,26.666667%);stroke-opacity:1;stroke-miterlimit:10;" d="M 203.148438 59.589844 L 218.578125 91.875 "/>
<path style="fill:none;stroke-width:1;stroke-linecap:butt;stroke-linejoin:miter;stroke:rgb(26.666667%,26.666667%,26.666667%);stroke-opacity:1;stroke-miterlimit:10;" d="M 535.691406 297.085938 L 516.285156 326.90625 "/>
<path style="fill:none;stroke-width:1;stroke-linecap:butt;stroke-linejoin:miter;stroke:rgb(26.666667%,26.666667%,26.666667%);stroke-opacity:1;stroke-miterlimit:10;" d="M 33.609375 300.921875 L 20 333.199219 "/>
<path style="fill:none;stroke-width:1;stroke-linecap:butt;stroke-linejoin:miter;stroke:rgb(26.666667%,26.666667%,26.666667%);stroke-opacity:1;stroke-miterlimit:10;" d="M 421.140625 546.011719 L 401.257812 517.558594 "/>
<path style="fill-rule:nonzero;fill:rgb(100%,0%,0%);fill-opacity:1;stroke-width:1;stroke-linecap:butt;stroke-linejoin:miter;stroke:rgb(0%,0%,0%);stroke-opacity:1;stroke-miterlimit:10;" d="M 374.070312 54.960938 C 374.070312 61.628906 364.070312 61.628906 364.070312 54.960938 C 364.070312 48.296875 374.070312 48.296875 374.070312 54.960938 "/>
<path style="fill-rule:nonzero;fill:rgb(100%,0%,0%);fill-opacity:1;stroke-width:1;stroke-linecap:butt;stroke-linejoin:miter;stroke:rgb(0%,0%,0%);stroke-opacity:1;stroke-miterlimit:10;" d="M 301.066406 434.589844 C 301.066406 441.253906 291.066406 441.253906 291.066406 434.589844 C 291.066406 427.921875 301.066406 427.921875 301.066406 434.589844 "/>
<path style="fill-rule:nonzero;fill:rgb(100%,6.896552%,0%);fill-opacity:1;stroke-width:1;stroke-linecap:butt;stroke-linejoin:miter;stroke:rgb(0%,0%,0%);stroke-opacity:1;stroke-miterlimit:10;" d="M 559.246094 408.34375 C 559.246094 415.011719 549.246094 415.011719 549.246094 408.34375 C 549.246094 401.679688 559.246094 401.679688 559.246094 408.34375 "/>
<path style="fill-rule:nonzero;fill:rgb(100%,20.689655%,0%);fill-opacity:1;stroke-width:1;stroke-linecap:butt;stroke-linejoin:miter;stroke:rgb(0%,0%,0%);stroke-opacity:1;stroke-miterlimit:10;" d="M 180.179688 407.660156 C 180.179688 414.328125 170.179688 414.328125 170.179688 407.660156 C 170.179688 400.996094 180.179688 400.996094 180.179688 407.660156 "/>
<path style="fill-rule:nonzero;fill:rgb(100%,27.586207%,0%);fill-opacity:1;stroke-width:1;stroke-linecap:butt;stroke-linejoin:miter;stroke:rgb(0%,0%,0%);stroke-opacity:1;stroke-miterlimit:10;" d="M 420.75 380.59375 C 420.75 387.261719 410.75 387.261719 410.75 380.59375 C 410.75 373.925781 420.75 373.925781 420.75 380.59375 "/>
<path style="fill-rule:nonzero;fill:rgb(100%,34.482759%,0%);fill-opacity:1;stroke-width:1;stroke-linecap:butt;stroke-linejoin:miter;stroke:rgb(0%,0%,0%);stroke-opacity:1;stroke-miterlimit:10;" d="M 389.785156 399.101562 C 389.785156 405.765625 379.785156 405.765625 379.785156 399.101562 C 379.785156 392.433594 389.785156 392.433594 389.785156 399.101562 "/>
<path style="fill-rule:nonzero;fill:rgb(100%,41.37931%,0%);fill-opacity:1;stroke-width:1;stroke-linecap:butt;stroke-linejoin:miter;stroke:rgb(0%,0%,0%);stroke-opacity:1;stroke-miterlimit:10;" d="M 583.253906 253.40625 C 583.253906 260.070312 573.253906 260.070312 573.253906 253.40625 C 573.253906 246.738281 583.253906 246.738281 583.253906 253.40625 "/>
<path style="fill-rule:nonzero;fill:rgb(100%,41.37931%,0%);fill-opacity:1;stroke-width:1;stroke-linecap:butt;stroke-linejoin:miter;stroke:rgb(0%,0%,0%);stroke-opacity:1;stroke-miterlimit:10;" d="M 212.074219 170.484375 C 212.074219 177.152344 202.074219 177.152344 202.074219 170.484375 C 202.074219 163.820312 212.074219 163.820312 212.074219 170.484375 "/>
<path style="fill-rule:nonzero;fill:rgb(100%,48.275862%,0%);fill-opacity:1;stroke-width:1;stroke-linecap:butt;stroke-linejoin:miter;stroke:rgb(0%,0%,0%);stroke-opacity:1;stroke-miterlimit:10;" d="M 307.898438 548.90625 C 307.898438 555.574219 297.898438 555.574219 297.898438 548.90625 C 297.898438 542.238281 307.898438 542.238281 307.898438 548.90625 "/>
<path style="fill-rule:nonzero;fill:rgb(100%,55.172414%,0%);fill-opacity:1;stroke-width:1;stroke-linecap:butt;stroke-linejoin:miter;stroke:rgb(0%,0%,0%);stroke-opacity:1;stroke-miterlimit:10;" d="M 298.34375 515.09375 C 298.34375 521.757812 288.34375 521.757812 288.34375 515.09375 C 288.34375 508.425781 298.34375 508.425781 298.34375 515.09375 "/>
<path style="fill-rule:nonzero;fill:rgb(96.551724%,100%,0%);fill-opacity:1;stroke-width:1;stroke-linecap:butt;stroke-linejoin:miter;stroke:rgb(0%,0%,0%);stroke-opacity:1;stroke-miterlimit:10;" d="M 281.023438 145.035156 C 281.023438 151.703125 271.023438 151.703125 271.023438 145.035156 C 271.023438 138.367188 281.023438 138.367188 281.023438 145.035156 "/>
<path style="fill-rule:nonzero;fill:rgb(82.758621%,100%,0%);fill-opacity:1;stroke-width:1;stroke-linecap:butt;stroke-linejoin:miter;stroke:rgb(0%,0%,0%);stroke-opacity:1;stroke-miterlimit:10;" d="M 202.175781 541.796875 C 202.175781 548.464844 192.175781 548.464844 192.175781 541.796875 C 192.175781 535.128906 202.175781 535.128906 202.175781 541.796875 "/>
<path style="fill-rule:nonzero;fill:rgb(75.862069%,100%,0%);fill-opacity:1;stroke-width:1;stroke-linecap:butt;stroke-linejoin:miter;stroke:rgb(0%,0%,0%);stroke-opacity:1;stroke-miterlimit:10;" d="M 166.675781 542.535156 C 166.675781 549.203125 156.675781 549.203125 156.675781 542.535156 C 156.675781 535.871094 166.675781 535.871094 166.675781 542.535156 "/>
<path style="fill-rule:nonzero;fill:rgb(68.965517%,100%,0%);fill-opacity:1;stroke-width:1;stroke-linecap:butt;stroke-linejoin:miter;stroke:rgb(0%,0%,0%);stroke-opacity:1;stroke-miterlimit:10;" d="M 561.09375 185.316406 C 561.09375 191.984375 551.09375 191.984375 551.09375 185.316406 C 551.09375 178.652344 561.09375 178.652344 561.09375 185.316406 "/>
<path style="fill-rule:nonzero;fill:rgb(62.068966%,100%,0%);fill-opacity:1;stroke-width:1;stroke-linecap:butt;stroke-linejoin:miter;stroke:rgb(0%,0%,0%);stroke-opacity:1;stroke-miterlimit:10;" d="M 313.949219 280.648438 C 313.949219 287.3125 303.949219 287.3125 303.949219 280.648438 C 303.949219 273.980469 313.949219 273.980469 313.949219 280.648438 "/>
<path style="fill-rule:nonzero;fill:rgb(20.689655%,100%,0%);fill-opacity:1;stroke-width:1;stroke-linecap:butt;stroke-linejoin:miter;stroke:rgb(0%,0%,0%);stroke-opacity:1;stroke-miterlimit:10;" d="M 519.59375 141.21875 C 519.59375 147.886719 509.59375 147.886719 509.59375 141.21875 C 509.59375 134.550781 519.59375 134.550781 519.59375 141.21875 "/>
<path style="fill-rule:nonzero;fill:rgb(20.689655%,100%,0%);fill-opacity:1;stroke-width:1;stroke-linecap:butt;stroke-linejoin:miter;stroke:rgb(0%,0%,0%);stroke-opacity:1;stroke-miterlimit:10;" d="M 327.886719 20 C 327.886719 26.667969 317.886719 26.667969 317.886719 20 C 317.886719 13.332031 327.886719 13.332031 327.886719 20 "/>
<path style="fill-rule:nonzero;fill:rgb(13.793103%,100%,0%);fill-opacity:1;stroke-width:1;stroke-linecap:butt;stroke-linejoin:miter;stroke:rgb(0%,0%,0%);stroke-opacity:1;stroke-miterlimit:10;" d="M 166.425781 334.875 C 166.425781 341.542969 156.425781 341.542969 156.425781 334.875 C 156.425781 328.210938 166.425781 328.210938 166.425781 334.875 "/>
<path style="fill-rule:nonzero;fill:rgb(0%,100%,6.896552%);fill-opacity:1;stroke-width:1;stroke-linecap:butt;stroke-linejoin:miter;stroke:rgb(0%,0%,0%);stroke-opacity:1;stroke-miterlimit:10;" d="M 458.34375 168.640625 C 458.34375 175.304688 448.34375 175.304688 448.34375 168.640625 C 448.34375 161.972656 458.34375 161.972656 458.34375 168.640625 "/>
<path style="fill-rule:nonzero;fill:rgb(0%,100%,27.586207%);fill-opacity:1;stroke-width:1;stroke-linecap:butt;stroke-linejoin:miter;stroke:rgb(0%,0%,0%);stroke-opacity:1;stroke-miterlimit:10;" d="M 106.480469 270.113281 C 106.480469 276.78125 96.480469 276.78125 96.480469 270.113281 C 96.480469 263.449219 106.480469 263.449219 106.480469 270.113281 "/>
<path style="fill-rule:nonzero;fill:rgb(0%,100%,27.586207%);fill-opacity:1;stroke-width:1;stroke-linecap:butt;stroke-linejoin:miter;stroke:rgb(0%,0%,0%);stroke-opacity:1;stroke-miterlimit:10;" d="M 94 112.257812 C 94 118.921875 84 118.921875 84 112.257812 C 84 105.589844 94 105.589844 94 112.257812 "/>
<path style="fill-rule:nonzero;fill:rgb(0%,100%,41.37931%);fill-opacity:1;stroke-width:1;stroke-linecap:butt;stroke-linejoin:miter;stroke:rgb(0%,0%,0%);stroke-opacity:1;stroke-miterlimit:10;" d="M 358.253906 129.285156 C 358.253906 135.949219 348.253906 135.949219 348.253906 129.285156 C 348.253906 122.617188 358.253906 122.617188 358.253906 129.285156 "/>
<path style="fill-rule:nonzero;fill:rgb(0%,100%,55.172414%);fill-opacity:1;stroke-width:1;stroke-linecap:butt;stroke-linejoin:miter;stroke:rgb(0%,0%,0%);stroke-opacity:1;stroke-miterlimit:10;" d="M 144.679688 65 C 144.679688 71.664062 134.679688 71.664062 134.679688 65 C 134.679688 58.332031 144.679688 58.332031 144.679688 65 "/>
<path style="fill-rule:nonzero;fill:rgb(0%,100%,62.068966%);fill-opacity:1;stroke-width:1;stroke-linecap:butt;stroke-linejoin:miter;stroke:rgb(0%,0%,0%);stroke-opacity:1;stroke-miterlimit:10;" d="M 325.265625 203.148438 C 325.265625 209.816406 315.265625 209.816406 315.265625 203.148438 C 315.265625 196.480469 325.265625 196.480469 325.265625 203.148438 "/>
<path style="fill-rule:nonzero;fill:rgb(0%,100%,75.862069%);fill-opacity:1;stroke-width:1;stroke-linecap:butt;stroke-linejoin:miter;stroke:rgb(0%,0%,0%);stroke-opacity:1;stroke-miterlimit:10;" d="M 153.222656 132.769531 C 153.222656 139.4375 143.222656 139.4375 143.222656 132.769531 C 143.222656 126.105469 153.222656 126.105469 153.222656 132.769531 "/>
<path style="fill-rule:nonzero;fill:rgb(0%,100%,82.758621%);fill-opacity:1;stroke-width:1;stroke-linecap:butt;stroke-linejoin:miter;stroke:rgb(0%,0%,0%);stroke-opacity:1;stroke-miterlimit:10;" d="M 256.375 387.722656 C 256.375 396.003906 249.660156 402.722656 241.375 402.722656 C 233.089844 402.722656 226.375 396.003906 226.375 387.722656 C 226.375 379.4375 233.089844 372.722656 241.375 372.722656 C 249.660156 372.722656 256.375 379.4375 256.375 387.722656 "/>
<path style="fill-rule:nonzero;fill:rgb(0%,100%,82.758621%);fill-opacity:1;stroke-width:1;stroke-linecap:butt;stroke-linejoin:miter;stroke:rgb(0%,0%,0%);stroke-opacity:1;stroke-miterlimit:10;" d="M 426.140625 546.011719 C 426.140625 552.679688 416.140625 552.679688 416.140625 546.011719 C 416.140625 539.34375 426.140625 539.34375 426.140625 546.011719 "/>
<path style="fill-rule:nonzero;fill:rgb(0%,100%,89.655172%);fill-opacity:1;stroke-width:1;stroke-linecap:butt;stroke-linejoin:miter;stroke:rgb(0%,0%,0%);stroke-opacity:1;stroke-miterlimit:10;" d="M 362.296875 469.414062 C 362.296875 476.078125 352.296875 476.078125 352.296875 469.414062 C 352.296875 462.746094 362.296875 462.746094 362.296875 469.414062 "/>
<path style="fill-rule:nonzero;fill:rgb(0%,100%,89.655172%);fill-opacity:1;stroke-width:1;stroke-linecap:butt;stroke-linejoin:miter;stroke:rgb(0%,0%,0%);stroke-opacity:1;stroke-miterlimit:10;" d="M 406.257812 517.558594 C 406.257812 524.226562 396.257812 524.226562 396.257812 517.558594 C 396.257812 510.894531 406.257812 510.894531 406.257812 517.558594 "/>
<path style="fill-rule:nonzero;fill:rgb(0%,96.551724%,100%);fill-opacity:1;stroke-width:1;stroke-linecap:butt;stroke-linejoin:miter;stroke:rgb(0%,0%,0%);stroke-opacity:1;stroke-miterlimit:10;" d="M 25.152344 240.402344 C 25.152344 247.070312 15.152344 247.070312 15.152344 240.402344 C 15.152344 233.738281 25.152344 233.738281 25.152344 240.402344 "/>
<path style="fill-rule:nonzero;fill:rgb(0%,89.655172%,100%);fill-opacity:1;stroke-width:1;stroke-linecap:butt;stroke-linejoin:miter;stroke:rgb(0%,0%,0%);stroke-opacity:1;stroke-miterlimit:10;" d="M 101.789062 492.023438 C 101.789062 498.6875 91.789062 498.6875 91.789062 492.023438 C 91.789062 485.355469 101.789062 485.355469 101.789062 492.023438 "/>
<path style="fill-rule:nonzero;fill:rgb(0%,82.758621%,100%);fill-opacity:1;stroke-width:1;stroke-linecap:butt;stroke-linejoin:miter;stroke:rgb(0%,0%,0%);stroke-opacity:1;stroke-miterlimit:10;" d="M 88.636719 464.640625 C 88.636719 472.925781 81.921875 479.640625 73.636719 479.640625 C 65.351562 479.640625 58.636719 472.925781 58.636719 464.640625 C 58.636719 456.359375 65.351562 449.640625 73.636719 449.640625 C 81.921875 449.640625 88.636719 456.359375 88.636719 464.640625 "/>
<path style="fill-rule:nonzero;fill:rgb(0%,82.758621%,100%);fill-opacity:1;stroke-width:1;stroke-linecap:butt;stroke-linejoin:miter;stroke:rgb(0%,0%,0%);stroke-opacity:1;stroke-miterlimit:10;" d="M 38.609375 300.921875 C 38.609375 307.589844 28.609375 307.589844 28.609375 300.921875 C 28.609375 294.253906 38.609375 294.253906 38.609375 300.921875 "/>
<path style="fill-rule:nonzero;fill:rgb(0%,75.862069%,100%);fill-opacity:1;stroke-width:1;stroke-linecap:butt;stroke-linejoin:miter;stroke:rgb(0%,0%,0%);stroke-opacity:1;stroke-miterlimit:10;" d="M 35 333.199219 C 35 341.484375 28.285156 348.199219 20 348.199219 C 11.714844 348.199219 5 341.484375 5 333.199219 C 5 324.914062 11.714844 318.199219 20 318.199219 C 28.285156 318.199219 35 324.914062 35 333.199219 "/>
<path style="fill-rule:nonzero;fill:rgb(0%,75.862069%,100%);fill-opacity:1;stroke-width:1;stroke-linecap:butt;stroke-linejoin:miter;stroke:rgb(0%,0%,0%);stroke-opacity:1;stroke-miterlimit:10;" d="M 527.003906 462.042969 C 527.003906 468.710938 517.003906 468.710938 517.003906 462.042969 C 517.003906 455.378906 527.003906 455.378906 527.003906 462.042969 "/>
<path style="fill-rule:nonzero;fill:rgb(0%,62.068966%,100%);fill-opacity:1;stroke-width:1;stroke-linecap:butt;stroke-linejoin:miter;stroke:rgb(0%,0%,0%);stroke-opacity:1;stroke-miterlimit:10;" d="M 454.386719 242.773438 C 454.386719 249.4375 444.386719 249.4375 444.386719 242.773438 C 444.386719 236.105469 454.386719 236.105469 454.386719 242.773438 "/>
<path style="fill-rule:nonzero;fill:rgb(0%,62.068966%,100%);fill-opacity:1;stroke-width:1;stroke-linecap:butt;stroke-linejoin:miter;stroke:rgb(0%,0%,0%);stroke-opacity:1;stroke-miterlimit:10;" d="M 109.371094 406.375 C 109.371094 413.039062 99.371094 413.039062 99.371094 406.375 C 99.371094 399.707031 109.371094 399.707031 109.371094 406.375 "/>
<path style="fill-rule:nonzero;fill:rgb(0%,48.275862%,100%);fill-opacity:1;stroke-width:1;stroke-linecap:butt;stroke-linejoin:miter;stroke:rgb(0%,0%,0%);stroke-opacity:1;stroke-miterlimit:10;" d="M 487.25 91.027344 C 487.25 97.695312 477.25 97.695312 477.25 91.027344 C 477.25 84.359375 487.25 84.359375 487.25 91.027344 "/>
<path style="fill-rule:nonzero;fill:rgb(0%,34.482759%,100%);fill-opacity:1;stroke-width:1;stroke-linecap:butt;stroke-linejoin:miter;stroke:rgb(0%,0%,0%);stroke-opacity:1;stroke-miterlimit:10;" d="M 515.480469 224.328125 C 515.480469 230.996094 505.480469 230.996094 505.480469 224.328125 C 505.480469 217.664062 515.480469 217.664062 515.480469 224.328125 "/>
<path style="fill-rule:nonzero;fill:rgb(0%,20.689655%,100%);fill-opacity:1;stroke-width:1;stroke-linecap:butt;stroke-linejoin:miter;stroke:rgb(0%,0%,0%);stroke-opacity:1;stroke-miterlimit:10;" d="M 432.007812 49.25 C 432.007812 55.914062 422.007812 55.914062 422.007812 49.25 C 422.007812 42.582031 432.007812 42.582031 432.007812 49.25 "/>
<path style="fill-rule:nonzero;fill:rgb(0%,20.689655%,100%);fill-opacity:1;stroke-width:1;stroke-linecap:butt;stroke-linejoin:miter;stroke:rgb(0%,0%,0%);stroke-opacity:1;stroke-miterlimit:10;" d="M 74.617188 199.3125 C 74.617188 205.976562 64.617188 205.976562 64.617188 199.3125 C 64.617188 192.644531 74.617188 192.644531 74.617188 199.3125 "/>
<path style="fill-rule:nonzero;fill:rgb(0%,13.793103%,100%);fill-opacity:1;stroke-width:1;stroke-linecap:butt;stroke-linejoin:miter;stroke:rgb(0%,0%,0%);stroke-opacity:1;stroke-miterlimit:10;" d="M 58.855469 168.300781 C 58.855469 174.96875 48.855469 174.96875 48.855469 168.300781 C 48.855469 161.636719 58.855469 161.636719 58.855469 168.300781 "/>
<path style="fill-rule:nonzero;fill:rgb(0%,6.896552%,100%);fill-opacity:1;stroke-width:1;stroke-linecap:butt;stroke-linejoin:miter;stroke:rgb(0%,0%,0%);stroke-opacity:1;stroke-miterlimit:10;" d="M 259.667969 22.742188 C 259.667969 29.410156 249.667969 29.410156 249.667969 22.742188 C 249.667969 16.078125 259.667969 16.078125 259.667969 22.742188 "/>
<path style="fill-rule:nonzero;fill:rgb(0%,6.896552%,100%);fill-opacity:1;stroke-width:1;stroke-linecap:butt;stroke-linejoin:miter;stroke:rgb(0%,0%,0%);stroke-opacity:1;stroke-miterlimit:10;" d="M 254.496094 580 C 254.496094 586.667969 244.496094 586.667969 244.496094 580 C 244.496094 573.332031 254.496094 573.332031 254.496094 580 "/>
<path style="fill-rule:nonzero;fill:rgb(6.896552%,0%,100%);fill-opacity:1;stroke-width:1;stroke-linecap:butt;stroke-linejoin:miter;stroke:rgb(0%,0%,0%);stroke-opacity:1;stroke-miterlimit:10;" d="M 423.410156 113.648438 C 423.410156 120.3125 413.410156 120.3125 413.410156 113.648438 C 413.410156 106.980469 423.410156 106.980469 423.410156 113.648438 "/>
<path style="fill-rule:nonzero;fill:rgb(13.793103%,0%,100%);fill-opacity:1;stroke-width:1;stroke-linecap:butt;stroke-linejoin:miter;stroke:rgb(0%,0%,0%);stroke-opacity:1;stroke-miterlimit:10;" d="M 451.949219 455.773438 C 451.949219 462.4375 441.949219 462.4375 441.949219 455.773438 C 441.949219 449.105469 451.949219 449.105469 451.949219 455.773438 "/>
<path style="fill-rule:nonzero;fill:rgb(13.793103%,0%,100%);fill-opacity:1;stroke-width:1;stroke-linecap:butt;stroke-linejoin:miter;stroke:rgb(0%,0%,0%);stroke-opacity:1;stroke-miterlimit:10;" d="M 241.65625 313.636719 C 241.65625 320.304688 231.65625 320.304688 231.65625 313.636719 C 231.65625 306.972656 241.65625 306.972656 241.65625 313.636719 "/>
<path style="fill-rule:nonzero;fill:rgb(27.586207%,0%,100%);fill-opacity:1;stroke-width:1;stroke-linecap:butt;stroke-linejoin:miter;stroke:rgb(0%,0%,0%);stroke-opacity:1;stroke-miterlimit:10;" d="M 323.617188 356.460938 C 323.617188 363.128906 313.617188 363.128906 313.617188 356.460938 C 313.617188 349.796875 323.617188 349.796875 323.617188 356.460938 "/>
<path style="fill-rule:nonzero;fill:rgb(41.37931%,0%,100%);fill-opacity:1;stroke-width:1;stroke-linecap:butt;stroke-linejoin:miter;stroke:rgb(0%,0%,0%);stroke-opacity:1;stroke-miterlimit:10;" d="M 97.816406 344.117188 C 97.816406 350.785156 87.816406 350.785156 87.816406 344.117188 C 87.816406 337.453125 97.816406 337.453125 97.816406 344.117188 "/>
<path style="fill-rule:nonzero;fill:rgb(68.965517%,0%,100%);fill-opacity:1;stroke-width:1;stroke-linecap:butt;stroke-linejoin:miter;stroke:rgb(0%,0%,0%);stroke-opacity:1;stroke-miterlimit:10;" d="M 451.949219 314.320312 C 451.949219 320.988281 441.949219 320.988281 441.949219 314.320312 C 441.949219 307.652344 451.949219 307.652344 451.949219 314.320312 "/>
<path style="fill-rule:nonzero;fill:rgb(68.965517%,0%,100%);fill-opacity:1;stroke-width:1;stroke-linecap:butt;stroke-linejoin:miter;stroke:rgb(0%,0%,0%);stroke-opacity:1;stroke-miterlimit:10;" d="M 585 347.9375 C 585 354.605469 575 354.605469 575 347.9375 C 575 341.273438 585 341.273438 585 347.9375 "/>
<path style="fill-rule:nonzero;fill:rgb(75.862069%,0%,100%);fill-opacity:1;stroke-width:1;stroke-linecap:butt;stroke-linejoin:miter;stroke:rgb(0%,0%,0%);stroke-opacity:1;stroke-miterlimit:10;" d="M 385.03125 286.117188 C 385.03125 292.785156 375.03125 292.785156 375.03125 286.117188 C 375.03125 279.453125 385.03125 279.453125 385.03125 286.117188 "/>
<path style="fill-rule:nonzero;fill:rgb(82.758621%,0%,100%);fill-opacity:1;stroke-width:1;stroke-linecap:butt;stroke-linejoin:miter;stroke:rgb(0%,0%,0%);stroke-opacity:1;stroke-miterlimit:10;" d="M 495.417969 396.929688 C 495.417969 403.597656 485.417969 403.597656 485.417969 396.929688 C 485.417969 390.265625 495.417969 390.265625 495.417969 396.929688 "/>
<path style="fill-rule:nonzero;fill:rgb(89.655172%,0%,100%);fill-opacity:1;stroke-width:1;stroke-linecap:butt;stroke-linejoin:miter;stroke:rgb(0%,0%,0%);stroke-opacity:1;stroke-miterlimit:10;" d="M 540.691406 297.085938 C 540.691406 303.753906 530.691406 303.753906 530.691406 297.085938 C 530.691406 290.417969 540.691406 290.417969 540.691406 297.085938 "/>
<path style="fill-rule:nonzero;fill:rgb(89.655172%,0%,100%);fill-opacity:1;stroke-width:1;stroke-linecap:butt;stroke-linejoin:miter;stroke:rgb(0%,0%,0%);stroke-opacity:1;stroke-miterlimit:10;" d="M 166.160156 472.476562 C 166.160156 479.144531 156.160156 479.144531 156.160156 472.476562 C 156.160156 465.8125 166.160156 465.8125 166.160156 472.476562 "/>
<path style="fill-rule:nonzero;fill:rgb(96.551724%,0%,100%);fill-opacity:1;stroke-width:1;stroke-linecap:butt;stroke-linejoin:miter;stroke:rgb(0%,0%,0%);stroke-opacity:1;stroke-miterlimit:10;" d="M 521.285156 326.90625 C 521.285156 333.574219 511.285156 333.574219 511.285156 326.90625 C 511.285156 320.238281 521.285156 320.238281 521.285156 326.90625 "/>
<path style="fill-rule:nonzero;fill:rgb(100%,0%,96.551724%);fill-opacity:1;stroke-width:1;stroke-linecap:butt;stroke-linejoin:miter;stroke:rgb(0%,0%,0%);stroke-opacity:1;stroke-miterlimit:10;" d="M 208.148438 59.589844 C 208.148438 66.257812 198.148438 66.257812 198.148438 59.589844 C 198.148438 52.925781 208.148438 52.925781 208.148438 59.589844 "/>
<path style="fill-rule:nonzero;fill:rgb(100%,0%,89.655172%);fill-opacity:1;stroke-width:1;stroke-linecap:butt;stroke-linejoin:miter;stroke:rgb(0%,0%,0%);stroke-opacity:1;stroke-miterlimit:10;" d="M 223.578125 91.875 C 223.578125 98.542969 213.578125 98.542969 213.578125 91.875 C 213.578125 85.210938 223.578125 85.210938 223.578125 91.875 "/>
<path style="fill-rule:nonzero;fill:rgb(100%,0%,82.758621%);fill-opacity:1;stroke-width:1;stroke-linecap:butt;stroke-linejoin:miter;stroke:rgb(0%,0%,0%);stroke-opacity:1;stroke-miterlimit:10;" d="M 303.59375 80.539062 C 303.59375 87.203125 293.59375 87.203125 293.59375 80.539062 C 293.59375 73.871094 303.59375 73.871094 303.59375 80.539062 "/>
<path style="fill-rule:nonzero;fill:rgb(100%,0%,75.862069%);fill-opacity:1;stroke-width:1;stroke-linecap:butt;stroke-linejoin:miter;stroke:rgb(0%,0%,0%);stroke-opacity:1;stroke-miterlimit:10;" d="M 487.613281 510.980469 C 487.613281 517.644531 477.613281 517.644531 477.613281 510.980469 C 477.613281 504.3125 487.613281 504.3125 487.613281 510.980469 "/>
<path style="fill-rule:nonzero;fill:rgb(100%,0%,62.068966%);fill-opacity:1;stroke-width:1;stroke-linecap:butt;stroke-linejoin:miter;stroke:rgb(0%,0%,0%);stroke-opacity:1;stroke-miterlimit:10;" d="M 143.8125 201.152344 C 143.8125 207.820312 133.8125 207.820312 133.8125 201.152344 C 133.8125 194.484375 143.8125 194.484375 143.8125 201.152344 "/>
<path style="fill-rule:nonzero;fill:rgb(100%,0%,62.068966%);fill-opacity:1;stroke-width:1;stroke-linecap:butt;stroke-linejoin:miter;stroke:rgb(0%,0%,0%);stroke-opacity:1;stroke-miterlimit:10;" d="M 237.183594 473.855469 C 237.183594 480.523438 227.183594 480.523438 227.183594 473.855469 C 227.183594 467.1875 237.183594 467.1875 237.183594 473.855469 "/>
<path style="fill-rule:nonzero;fill:rgb(100%,0%,48.275862%);fill-opacity:1;stroke-width:1;stroke-linecap:butt;stroke-linejoin:miter;stroke:rgb(0%,0%,0%);stroke-opacity:1;stroke-miterlimit:10;" d="M 39.460938 401.503906 C 39.460938 408.171875 29.460938 408.171875 29.460938 401.503906 C 29.460938 394.835938 39.460938 394.835938 39.460938 401.503906 "/>
<path style="fill-rule:nonzero;fill:rgb(100%,0%,48.275862%);fill-opacity:1;stroke-width:1;stroke-linecap:butt;stroke-linejoin:miter;stroke:rgb(0%,0%,0%);stroke-opacity:1;stroke-miterlimit:10;" d="M 394.316406 200.058594 C 394.316406 206.722656 384.316406 206.722656 384.316406 200.058594 C 384.316406 193.390625 394.316406 193.390625 394.316406 200.058594 "/>
<path style="fill-rule:nonzero;fill:rgb(100%,0%,34.482759%);fill-opacity:1;stroke-width:1;stroke-linecap:butt;stroke-linejoin:miter;stroke:rgb(0%,0%,0%);stroke-opacity:1;stroke-miterlimit:10;" d="M 179.890625 261.460938 C 179.890625 268.128906 169.890625 268.128906 169.890625 261.460938 C 169.890625 254.796875 179.890625 254.796875 179.890625 261.460938 "/>
<path style="fill-rule:nonzero;fill:rgb(100%,0%,27.586207%);fill-opacity:1;stroke-width:1;stroke-linecap:butt;stroke-linejoin:miter;stroke:rgb(0%,0%,0%);stroke-opacity:1;stroke-miterlimit:10;" d="M 360.246094 577.382812 C 360.246094 584.046875 350.246094 584.046875 350.246094 577.382812 C 350.246094 570.714844 360.246094 570.714844 360.246094 577.382812 "/>
<path style="fill-rule:nonzero;fill:rgb(100%,0%,6.896552%);fill-opacity:1;stroke-width:1;stroke-linecap:butt;stroke-linejoin:miter;stroke:rgb(0%,0%,0%);stroke-opacity:1;stroke-miterlimit:10;" d="M 250.546875 230.464844 C 250.546875 237.132812 240.546875 237.132812 240.546875 230.464844 C 240.546875 223.796875 250.546875 223.796875 250.546875 230.464844 "/>
</g>
</svg>
